<svg width="315" height="84" viewBox="0 0 315 84" fill="none" xmlns="http://www.w3.org/2000/svg"><path fill-rule="evenodd" clip-rule="evenodd" d="M41.6667 82.1998L70.8333 65.5331C72.0989 64.8025 73.1501 63.7518 73.8814 62.4866C74.6127 61.2214 74.9985 59.7861 75 58.3248V24.9915C74.9985 23.5301 74.6127 22.0948 73.8814 20.8296C73.1501 19.5644 72.0989 18.5138 70.8333 17.7831L41.6667 1.11645C40.3998 0.385052 38.9628 0 37.5 0C36.0372 0 34.6002 0.385052 33.3333 1.11645L4.16667 17.7831C2.90109 18.5138 1.84992 19.5644 1.11859 20.8296C0.387262 22.0948 0.00149893 23.5301 0 24.9915V58.3248C0.00149893 59.7861 0.387262 61.2214 1.11859 62.4866C1.84992 63.7518 2.90109 64.8025 4.16667 65.5331L33.3333 82.1998C34.6002 82.9312 36.0372 83.3162 37.5 83.3162C38.9628 83.3162 40.3998 82.9312 41.6667 82.1998ZM5.5 58.3212C5.50087 58.8174 5.63201 59.3046 5.88032 59.7342C6.12748 60.1618 6.48208 60.5173 6.90892 60.7655C6.9115 60.767 6.91408 60.7685 6.91666 60.77L36.0621 77.4245L36.0833 77.4367C36.5141 77.6853 37.0026 77.8162 37.5 77.8162C37.9974 77.8162 38.4859 77.6853 38.9167 77.4367L38.9379 77.4245L68.0833 60.77C68.0859 60.7685 68.0885 60.767 68.0911 60.7655C68.5179 60.5172 68.8725 60.1617 69.1197 59.7342C69.3683 59.304 69.4995 58.816 69.5 58.3191V24.9971C69.4995 24.5002 69.3683 24.0122 69.1197 23.5821C68.8725 23.1545 68.5179 22.799 68.0911 22.5508C68.0885 22.5493 68.0859 22.5478 68.0833 22.5463L38.9379 5.89179L38.9167 5.87959C38.4859 5.63092 37.9974 5.5 37.5 5.5C37.0026 5.5 36.5141 5.63092 36.0833 5.87959L36.0621 5.89179L6.91666 22.5463C6.91407 22.5478 6.91148 22.5493 6.9089 22.5508C6.48207 22.799 6.12747 23.1545 5.88032 23.5821C5.63201 24.0117 5.50087 24.4989 5.5 24.995V58.3212Z" fill="#7C3AED"/><path d="M295.96 64.8302C291.649 64.8302 288.442 63.7902 286.34 61.7102C284.26 59.6302 283.22 56.4452 283.22 52.1552V44.6152C283.22 40.2602 284.26 37.0536 286.34 34.9952C288.442 32.9152 291.649 31.8752 295.96 31.8752H301.29C305.624 31.8752 308.83 32.9152 310.91 34.9952C312.99 37.0752 314.03 40.2819 314.03 44.6152V52.0902C314.03 56.4019 312.99 59.6086 310.91 61.7102C308.83 63.7902 305.624 64.8302 301.29 64.8302H295.96ZM288.68 52.1552C288.68 54.9502 289.189 56.8569 290.208 57.8752C291.226 58.8719 293.144 59.3702 295.96 59.3702H301.29C304.129 59.3702 306.046 58.8611 307.043 57.8427C308.061 56.8244 308.57 54.9069 308.57 52.0902V44.6152C308.57 41.7769 308.061 39.8594 307.043 38.8627C306.046 37.8444 304.129 37.3352 301.29 37.3352H295.96C294.075 37.3352 292.602 37.5519 291.54 37.9852C290.5 38.3969 289.764 39.1336 289.33 40.1952C288.897 41.2352 288.68 42.7086 288.68 44.6152V52.1552Z" fill="#7C3AED"/><path d="M269.571 26.5451C267.512 26.5451 266.483 25.5051 266.483 23.4251V21.5076C266.483 19.471 267.512 18.4526 269.571 18.4526H271.456C273.427 18.4526 274.413 19.471 274.413 21.5076V23.4251C274.413 25.5051 273.427 26.5451 271.456 26.5451H269.571ZM270.481 64.8301C268.661 64.8301 267.751 63.9201 267.751 62.1001V34.6051C267.751 32.7851 268.661 31.8751 270.481 31.8751C272.301 31.8751 273.211 32.7851 273.211 34.6051V62.1001C273.211 63.9201 272.301 64.8301 270.481 64.8301Z" fill="#7C3AED"/><path d="M228.695 64.8303C226.875 64.8303 225.965 63.9203 225.965 62.1003V23.4903C225.965 21.6703 226.875 20.7603 228.695 20.7603H245.66C249.105 20.7603 251.749 21.6703 253.59 23.4903C255.454 25.3103 256.385 27.9103 256.385 31.2903V33.0453C256.385 35.9703 255.465 38.2344 253.623 39.8378C257.068 41.7661 258.79 45.2869 258.79 50.4003V52.6103C258.79 56.5969 257.729 59.6303 255.605 61.7103C253.504 63.7903 250.47 64.8303 246.505 64.8303H228.695ZM231.425 59.3703H246.505C248.954 59.3703 250.698 58.8503 251.738 57.8103C252.8 56.7486 253.33 55.0153 253.33 52.6103V50.4003C253.33 47.9953 252.821 46.2836 251.803 45.2653C250.785 44.2253 249.019 43.7053 246.505 43.7053H231.425V59.3703ZM231.425 38.2453H246.83C248.412 38.2453 249.485 37.7578 250.048 36.7828C250.633 35.8078 250.925 34.5619 250.925 33.0453V31.2903C250.925 29.4053 250.535 28.0944 249.755 27.3578C248.975 26.5994 247.61 26.2203 245.66 26.2203H231.425V38.2453Z" fill="#7C3AED"/><path d="M191.242 64.1802C189.812 63.0752 189.617 61.7968 190.657 60.3452L200.277 46.7927L192.282 36.3602C191.134 34.9302 191.307 33.6735 192.802 32.5902C194.211 31.4418 195.467 31.5935 196.572 33.0452L204.112 42.8602L211.522 33.0452C212.606 31.5502 213.884 31.3768 215.357 32.5252C216.787 33.6085 216.961 34.8868 215.877 36.3602L207.525 47.3452L217.437 60.2802C218.499 61.7318 218.347 63.0102 216.982 64.1152C215.509 65.2635 214.231 65.0902 213.147 63.5952L203.755 51.3427L195.077 63.5302C193.994 65.0252 192.716 65.2418 191.242 64.1802Z" fill="#7C3AED"/><path d="M178.048 26.5451C175.989 26.5451 174.96 25.5051 174.96 23.4251V21.5076C174.96 19.471 175.989 18.4526 178.048 18.4526H179.933C181.904 18.4526 182.89 19.471 182.89 21.5076V23.4251C182.89 25.5051 181.904 26.5451 179.933 26.5451H178.048ZM178.958 64.8301C177.138 64.8301 176.228 63.9201 176.228 62.1001V34.6051C176.228 32.7851 177.138 31.8751 178.958 31.8751C180.778 31.8751 181.688 32.7851 181.688 34.6051V62.1001C181.688 63.9201 180.778 64.8301 178.958 64.8301Z" fill="#7C3AED"/><path d="M137.871 64.8302C136.051 64.8302 135.141 63.9202 135.141 62.1002V34.6052C135.141 32.7852 136.051 31.8752 137.871 31.8752C139.691 31.8752 140.601 32.7852 140.601 34.6052V35.6777C142.897 33.1427 146.277 31.8752 150.741 31.8752H152.561C156.894 31.8752 160.101 32.9152 162.181 34.9952C164.261 37.0752 165.301 40.2819 165.301 44.6152V62.1002C165.301 63.9202 164.391 64.8302 162.571 64.8302C160.751 64.8302 159.841 63.9202 159.841 62.1002V44.6152C159.841 41.7769 159.321 39.8594 158.281 38.8627C157.262 37.8444 155.356 37.3352 152.561 37.3352H150.741C148.141 37.3352 145.876 37.6386 143.948 38.2452C142.02 38.8302 140.904 39.7619 140.601 41.0402V62.1002C140.601 63.9202 139.691 64.8302 137.871 64.8302Z" fill="#7C3AED"/><path d="M101.56 64.8303C96.5983 64.8303 92.9258 63.6494 90.5425 61.2878C88.1808 58.9044 87 55.2319 87 50.2703V23.4903C87 22.5803 87.2275 21.8978 87.6825 21.4428C88.1375 20.9878 88.82 20.7603 89.73 20.7603C90.64 20.7603 91.3225 20.9878 91.7775 21.4428C92.2325 21.8978 92.46 22.5803 92.46 23.4903V50.2703C92.46 52.5886 92.7308 54.4086 93.2725 55.7303C93.8358 57.0519 94.7783 57.9944 96.1 58.5578C97.4217 59.0994 99.2417 59.3703 101.56 59.3703H109.36C111.678 59.3703 113.498 59.0994 114.82 58.5578C116.142 57.9944 117.073 57.0519 117.615 55.7303C118.178 54.4086 118.46 52.5886 118.46 50.2703V23.4903C118.46 22.5803 118.687 21.8978 119.142 21.4428C119.597 20.9878 120.28 20.7603 121.19 20.7603C122.1 20.7603 122.783 20.9878 123.238 21.4428C123.693 21.8978 123.92 22.5803 123.92 23.4903V50.2703C123.92 55.2319 122.739 58.9044 120.377 61.2878C118.016 63.6494 114.343 64.8303 109.36 64.8303H101.56Z" fill="#7C3AED"/></svg>